<?xml version="1.0" encoding="UTF-8"?>
<svg width="20px" height="20px" viewBox="0 0 20 20" version="1.1" xmlns="http://www.w3.org/2000/svg" xmlns:xlink="http://www.w3.org/1999/xlink">
    <!-- Generator: Sketch 55.2 (78181) - https://sketchapp.com -->
    <title>noun_Diving Mask_508018</title>
    <desc>Created with Sketch.</desc>
    <g id="5-+-mobile" stroke="none" stroke-width="1" fill="none" fill-rule="evenodd">
        <g id="room-selection" transform="translate(-947.000000, -490.000000)" fill="#FFFFFF" fill-rule="nonzero">
            <g id="noun_Diving-Mask_508018" transform="translate(947.000000, 490.000000)">
                <g id="Group">
                    <path d="M17.9787234,0.0265957447 L17.9787234,15.9840426 C17.9787234,17.0851064 17.0851064,17.9787234 15.9840426,17.9787234 L10.9946809,17.9787234 C9.89361702,17.9787234 9,17.0851064 9,15.9840426 L9,13.9893617 L7.00531915,13.9893617 L7.00531915,15.9840426 C7.00531915,18.1861702 8.79255319,19.9734043 10.9946809,19.9734043 L15.9840426,19.9734043 C18.1861702,19.9734043 19.9734043,18.1861702 19.9734043,15.9840426 L19.9734043,0.0265957447 L17.9787234,0.0265957447 Z" id="Path"></path>
                    <path d="M11.3882979,13.1914894 C11.6968085,13.1914894 12.0106383,13.1595745 12.3244681,13.1010638 C14.0478723,12.7606383 15.4680851,11.3882979 15.8617021,9.68617021 C16.1861702,8.28723404 15.8670213,6.85638298 14.9893617,5.75 C14.1117021,4.64893617 12.8031915,4.01595745 11.3989362,4.01595745 L4.81914894,4.01595745 C2.26595745,4.01595745 0.164893617,5.92553191 0.0319148936,8.35638298 C-0.0319148936,9.62765957 0.409574468,10.8404255 1.28723404,11.7606383 C2.14893617,12.6702128 3.36170213,13.1914894 4.61170213,13.1914894 C5.90957447,13.1914894 7.13829787,12.643617 8.00531915,11.6755319 C8.88297872,12.6595745 10.1010638,13.1914894 11.3882979,13.1914894 Z M7.99468085,9.61702128 C7.44680851,9.61702128 6.93617021,9.85638298 6.58510638,10.2712766 C5.63297872,11.4148936 3.75531915,11.462766 2.73404255,10.3882979 C2.2393617,9.86702128 1.9893617,9.18085106 2.02659574,8.46276596 C2.09574468,7.11170213 3.35106383,6.0106383 4.81914894,6.0106383 L11.3989362,6.0106383 C12.1914894,6.0106383 12.9361702,6.36702128 13.4308511,6.9893617 C13.9361702,7.62234043 14.106383,8.42021277 13.9202128,9.23404255 C13.7021277,10.1861702 12.9042553,10.9521277 11.9414894,11.143617 C10.9946809,11.3351064 10.0531915,11.0106383 9.44148936,10.2819149 C9.07978723,9.85638298 8.55319149,9.61702128 7.99468085,9.61702128 C7.99468085,9.61702128 7.99468085,9.61702128 7.99468085,9.61702128 Z" id="Shape"></path>
                </g>
            </g>
        </g>
    </g>
</svg>