<?xml version="1.0" encoding="UTF-8"?>
<svg width="17px" height="11px" viewBox="0 0 17 11" version="1.1" xmlns="http://www.w3.org/2000/svg" xmlns:xlink="http://www.w3.org/1999/xlink">
    <!-- Generator: Sketch 61 (89581) - https://sketch.com -->
    <title>eye copy 4</title>
    <desc>Created with Sketch.</desc>
    <defs>
        <path d="M16.8038419,4.77158357 C15.1397088,1.91151372 12.0360187,0 8.5,0 C4.96246324,0 1.85950394,1.91285757 0.196162729,4.77158357 C-0.0653875764,5.22109026 -0.0653875764,5.77896723 0.196162729,6.22847392 C1.86029865,9.08850065 4.96393913,11 8.5,11 C12.0375087,11 15.1404893,9.08713524 16.8038419,6.22840205 C17.065386,5.77889537 17.065386,5.22109026 16.8038419,4.77158357 Z M8.49999309,9.56517177 C6.28167169,9.56517177 4.48611375,7.74702321 4.48611375,5.49999281 C4.48611375,3.25330736 6.28131691,1.43477792 8.49999309,1.43477792 C10.7182932,1.43477792 12.513837,3.25294804 12.513837,5.49999281 C12.513837,7.7466639 10.718648,9.56517177 8.49999309,9.56517177 Z M11.5694115,5.49999281 C11.5694115,7.21688559 10.1952049,8.60866753 8.49999309,8.60866753 C6.80477415,8.60866753 5.43055344,7.21688559 5.43055344,5.49999281 C5.43055344,4.97064569 5.56132551,4.47234363 5.79168444,4.03612451 L5.79165606,4.0370803 C5.79165606,4.74405982 6.35752375,5.3171 7.05555424,5.3171 C7.75360602,5.3171 8.31948081,4.74398796 8.31948081,4.0370803 C8.31948081,3.33012234 7.75360602,2.75701748 7.05555424,2.75701748 L7.05461053,2.75704622 C7.48532106,2.5237483 7.97733056,2.39130372 8.49999309,2.39130372 C10.1952049,2.39130372 11.5694115,3.78310004 11.5694115,5.49999281 Z" id="path-1"></path>
    </defs>
    <g id="Page-1" stroke="none" stroke-width="1" fill="none" fill-rule="evenodd">
        <g id="get-discount_empty" transform="translate(-554.000000, -442.000000)">
            <g id="eye-copy-4" transform="translate(554.000000, 442.000000)">
                <mask id="mask-2" fill="white">
                    <use xlink:href="#path-1"></use>
                </mask>
                <g id="Shape"></g>
                <rect id="Rectangle" fill="#38919D" fill-rule="nonzero" mask="url(#mask-2)" x="0" y="-3" width="17" height="17"></rect>
            </g>
        </g>
    </g>
</svg>