<?xml version="1.0" encoding="UTF-8"?>
<svg width="21px" height="23px" viewBox="0 0 21 23" version="1.1" xmlns="http://www.w3.org/2000/svg" xmlns:xlink="http://www.w3.org/1999/xlink">
    <!-- Generator: Sketch 55.2 (78181) - https://sketchapp.com -->
    <title>noun_profile_1536702</title>
    <desc>Created with Sketch.</desc>
    <g id="5-+-mobile" stroke="none" stroke-width="1" fill="none" fill-rule="evenodd">
        <g id="room-selection" transform="translate(-946.000000, -440.000000)" fill="#FFFFFF" fill-rule="nonzero" stroke="#FFFFFF" stroke-width="0.2">
            <g id="noun_profile_1536702" transform="translate(946.000000, 441.000000)">
                <g id="Group">
                    <path d="M0.17027027,21.0253165 L0.17027027,21.8607595 L20.8581081,21.8607595 L20.8581081,21.0253165 C20.8581081,15.4 17.1972973,12.3088608 10.5283784,12.3088608 C3.85945946,12.3088608 0.17027027,15.4 0.17027027,21.0253165 Z M10.5,13.9797468 C15.8918919,13.9797468 18.7581081,16.0683544 19.0986486,20.1898734 L1.90135135,20.1898734 C2.24189189,16.0683544 5.10810811,13.9797468 10.5,13.9797468 Z" id="Shape"></path>
                    <path d="M15.8918919,5.48607595 C15.8918919,2.42278481 13.5648649,0.0835443038 10.5,0.0835443038 C7.43513514,0.0835443038 5.10810811,2.39493671 5.10810811,5.48607595 C5.10810811,8.66075949 7.52027027,11.2227848 10.5,11.2227848 C13.4797297,11.2227848 15.8918919,8.66075949 15.8918919,5.48607595 Z M6.81081081,5.48607595 C6.81081081,3.34177215 8.37162162,1.75443038 10.5,1.75443038 C12.6283784,1.75443038 14.1891892,3.34177215 14.1891892,5.48607595 C14.1891892,7.74177215 12.5432432,9.55189873 10.5,9.55189873 C8.45675676,9.55189873 6.81081081,7.74177215 6.81081081,5.48607595 Z" id="Shape"></path>
                </g>
            </g>
        </g>
    </g>
</svg>