<?xml version="1.0" encoding="UTF-8"?>
<svg width="11px" height="16px" viewBox="0 0 11 16" version="1.1" xmlns="http://www.w3.org/2000/svg" xmlns:xlink="http://www.w3.org/1999/xlink">
    <!-- Generator: Sketch 60.1 (88133) - https://sketch.com -->
    <title>noun_Luggage_2860763 Copy 2</title>
    <desc>Created with Sketch.</desc>
    <g id="Page-1" stroke="none" stroke-width="1" fill="none" fill-rule="evenodd">
        <g id="flight-options-default" transform="translate(-20.000000, -512.000000)" fill="#A4ACB1" fill-rule="nonzero">
            <g id="Group-27" transform="translate(20.000000, 220.000000)">
                <g id="noun_Luggage_2860763-Copy-2" transform="translate(0.000000, 292.000000)">
                    <g id="Group">
                        <path d="M10.7206349,8.45525773 C10.6333333,8.45525773 10.5460317,8.45195876 10.4587302,8.45030928 C10.2963492,8.45030928 10.1322222,8.44536082 9.96984127,8.44536082 L0,8.44536082 L0,14.0964948 C0,14.4494845 0.0855555556,14.7942268 0.279365079,15.1010309 C0.63031746,15.6519588 1.27111111,15.9851546 1.95031746,15.9901031 C2.33444444,15.9917526 2.72206349,15.9835052 3.10619048,15.9835052 L8.8331746,15.9835052 C9.04793651,15.9835052 9.25746032,15.9884536 9.47047619,15.9439175 C10.1252381,15.8086598 10.6542857,15.3435052 10.8777778,14.7529897 C10.9650794,14.5220619 10.9807937,14.2845361 10.9807937,14.0420619 L10.9807937,8.45525773 C10.8952381,8.45525773 10.8079365,8.45525773 10.7206349,8.45525773 Z" id="Path"></path>
                        <path d="M10.0414286,4.27546392 C9.7131746,4.08907216 9.34301587,4.00824742 8.96412698,4.00824742 L7.50793651,4.00824742 L7.50793651,0.989690722 L7.8815873,0.989690722 C8.15571429,0.989690722 8.41761905,0.762061856 8.40539683,0.494845361 C8.3931746,0.225979381 8.17492063,0 7.8815873,0 L3.1184127,0 C2.84428571,0 2.58238095,0.227628866 2.59460317,0.494845361 C2.6068254,0.76371134 2.82507937,0.989690722 3.1184127,0.989690722 L3.47460317,0.989690722 L3.47460317,4.00824742 L2.4915873,4.00824742 C2.32396825,4.00824742 2.15460317,4.01484536 1.98698413,4.01484536 C1.49984127,4.01484536 1.04063492,4.17484536 0.67047619,4.47505155 C0.246190476,4.81979381 0.00698412698,5.33938144 0.00523809524,5.86391753 C0.00523809524,5.97278351 0.00174603175,6.08329897 0.00174603175,6.19051546 L0.00174603175,7.45731959 C0.089047619,7.45731959 0.176349206,7.45731959 0.263650794,7.45731959 C0.350952381,7.45731959 0.438253968,7.45402062 0.525555556,7.4556701 C0.693174603,7.45731959 0.860793651,7.45402062 1.0284127,7.45402062 L10.9825397,7.45402062 L10.9825397,5.90680412 C10.9860317,5.89030928 10.9877778,5.87381443 10.9877778,5.8556701 C10.9825397,5.2156701 10.6246032,4.60701031 10.0414286,4.27546392 Z M6.46031746,4.00824742 L4.52222222,4.00824742 L4.52222222,0.989690722 L6.46031746,0.989690722 L6.46031746,4.00824742 Z" id="Shape"></path>
                    </g>
                </g>
            </g>
        </g>
    </g>
</svg>