<?xml version="1.0" encoding="UTF-8"?>
<svg width="14px" height="14px" viewBox="0 0 14 14" version="1.1" xmlns="http://www.w3.org/2000/svg" xmlns:xlink="http://www.w3.org/1999/xlink">
    <!-- Generator: Sketch 60.1 (88133) - https://sketch.com -->
    <title>Path Copy 3</title>
    <desc>Created with Sketch.</desc>
    <g id="Page-1" stroke="none" stroke-width="1" fill="none" fill-rule="evenodd">
        <g id="flight-options-default" transform="translate(-20.000000, -220.000000)" fill="#A4ACB1" fill-rule="nonzero">
            <g id="Group-27" transform="translate(20.000000, 220.000000)">
                <path d="M13.7627119,7.3171309 L8.49491525,4.93062052 L8.63728814,1.64354017 C8.63728814,1.19325519 8.49491525,0.787998713 8.16271186,0.472799228 C7.54576271,-0.157599743 6.40677966,-0.157599743 5.78983051,0.472799228 C5.45762712,0.787998713 5.31525424,1.19325519 5.31525424,1.64354017 L5.45762712,4.93062052 L0.189830508,7.3171309 C0.0474576271,7.3621594 0,7.49724489 0,7.63233039 L0,9.02821382 C0,9.11827082 0.0474576271,9.25335631 0.142372881,9.29838481 C0.237288136,9.34341331 0.33220339,9.3884418 0.474576271,9.34341331 L5.6,8.12764386 L5.74237288,11.5047812 L3.3220339,12.5854652 C3.17966102,12.6304936 3.13220339,12.7655791 3.13220339,12.9006646 L3.13220339,13.6661491 C3.13220339,13.7562061 3.17966102,13.8912916 3.27457627,13.9363201 C3.36949153,13.9813486 3.46440678,14.0263771 3.60677966,13.9813486 L7.02372881,13.1708356 L10.440678,13.9813486 C10.4881356,13.9813486 10.4881356,13.9813486 10.5355932,13.9813486 C10.6305085,13.9813486 10.6779661,13.9363201 10.7728814,13.8912916 C10.8677966,13.8462631 10.9152542,13.7111776 10.9152542,13.6211206 L10.9152542,12.8556361 C10.9152542,12.7205506 10.820339,12.5854652 10.7254237,12.5404367 L8.25762712,11.5047812 L8.4,8.12764386 L13.5254237,9.34341331 C13.620339,9.3884418 13.7627119,9.34341331 13.8576271,9.29838481 C13.9525424,9.25335631 14,9.11827082 14,9.02821382 L14,7.63233039 C13.9525424,7.49724489 13.9050847,7.3621594 13.7627119,7.3171309 Z" id="Path-Copy-3"></path>
            </g>
        </g>
    </g>
</svg>