<?xml version="1.0" encoding="UTF-8"?>
<svg width="25px" height="25px" viewBox="0 0 25 25" version="1.1" xmlns="http://www.w3.org/2000/svg" xmlns:xlink="http://www.w3.org/1999/xlink">
    <!-- Generator: Sketch 61 (89581) - https://sketch.com -->
    <title>Group 6 Copy 12</title>
    <desc>Created with Sketch.</desc>
    <g id="whole-chalets" stroke="none" stroke-width="1" fill="none" fill-rule="evenodd">
        <g id="payment" transform="translate(-550.000000, -551.000000)">
            <g id="Group-3-Copy-2" transform="translate(550.000000, 551.000000)">
                <g id="Group-6-Copy-12">
                    <g id="Group-16">
                        <circle id="Oval-Copy" fill="#F3F3F3" cx="12.5" cy="12.5" r="12.5"></circle>
                        <g id="departure-copy" transform="translate(4.000000, 3.000000)" fill="#38919D" fill-rule="nonzero">
                            <path d="M7.35781461,4.01127723 L10.4952116,6.02368569 L13.1302576,4.46737254 C13.4812213,4.26006399 13.8933655,4.20073475 14.2906867,4.30041448 C14.688036,4.40006671 15.0198086,4.6459379 15.2249367,4.99267155 C15.4300929,5.33943271 15.4823401,5.74282758 15.3720968,6.12850894 C15.2618253,6.51419031 15.0031819,6.83286841 14.6437358,7.02592913 L14.6437358,7.02592913 L5.89649907,11.7235018 L4.01173878,11.6399402 L1.38897962,9.89348191 L3.47323181,8.71897186 L4.88055294,9.33985229 L7.18906796,7.97637982 L4.7530348,5.46020912 L7.35781461,4.01127723 Z" id="Shape" transform="translate(8.408776, 7.867389) rotate(-315.000000) translate(-8.408776, -7.867389) "></path>
                            <rect id="Rectangle" x="1" y="14.3858089" width="12.8225754" height="1"></rect>
                        </g>
                    </g>
                </g>
            </g>
        </g>
    </g>
</svg>