<?xml version="1.0" encoding="UTF-8"?>
<svg width="16px" height="16px" viewBox="0 0 16 16" version="1.1" xmlns="http://www.w3.org/2000/svg" xmlns:xlink="http://www.w3.org/1999/xlink">
    <!-- Generator: Sketch 55.2 (78181) - https://sketchapp.com -->
    <title>Group 7</title>
    <desc>Created with Sketch.</desc>
    <g id="Page-1" stroke="none" stroke-width="1" fill="none" fill-rule="evenodd">
        <g id="guest-details-upd-mobile-&amp;-lead-hover" transform="translate(-388.000000, -219.000000)">
            <g id="Group-7" transform="translate(388.000000, 219.000000)">
                <circle id="Oval-Copy" fill-opacity="0.8" fill="#A4ACB1" cx="8" cy="8" r="8"></circle>
                <path d="M6.86,10.344 L8.576,10.344 L8.576,12 L6.86,12 L6.86,10.344 Z M6.992,9.228 C6.992,9.07599924 7.0019999,8.91400086 7.022,8.742 C7.0420001,8.56999914 7.08399968,8.3940009 7.148,8.214 C7.21200032,8.0339991 7.30999934,7.85600088 7.442,7.68 C7.57400066,7.50399912 7.75599884,7.3360008 7.988,7.176 C8.11600064,7.08799956 8.24399936,6.99600048 8.372,6.9 C8.50000064,6.80399952 8.61599948,6.70400052 8.72,6.6 C8.82400052,6.49599948 8.90799968,6.38800056 8.972,6.276 C9.03600032,6.16399944 9.068,6.04000068 9.068,5.904 C9.068,5.6639988 8.97600092,5.46600078 8.792,5.31 C8.60799908,5.15399922 8.35200164,5.076 8.024,5.076 C7.80799892,5.076 7.60800092,5.10799968 7.424,5.172 C7.23999908,5.23600032 7.0780007,5.3079996 6.938,5.388 C6.7979993,5.4680004 6.68200046,5.54999958 6.59,5.634 C6.49799954,5.71800042 6.4320002,5.77599984 6.392,5.808 L5.456,4.968 C5.4960002,4.91199972 5.5759994,4.82000064 5.696,4.692 C5.8160006,4.56399936 5.97999896,4.43400066 6.188,4.302 C6.39600104,4.16999934 6.65399846,4.05200052 6.962,3.948 C7.27000154,3.84399948 7.62799796,3.792 8.036,3.792 C8.42800196,3.792 8.77599848,3.84799944 9.08,3.96 C9.38400152,4.07200056 9.64199894,4.22399904 9.854,4.416 C10.0660011,4.60800096 10.2279994,4.82999874 10.34,5.082 C10.4520006,5.33400126 10.508,5.59599864 10.508,5.868 C10.508,6.31600224 10.4200009,6.6799986 10.244,6.96 C10.0679991,7.2400014 9.80400176,7.50799872 9.452,7.764 C9.27599912,7.89200064 9.12400064,8.00399952 8.996,8.1 C8.86799936,8.19600048 8.76200042,8.29799946 8.678,8.406 C8.59399958,8.51400054 8.5320002,8.63199936 8.492,8.76 C8.4519998,8.88800064 8.432,9.04399908 8.432,9.228 L8.432,9.492 L6.992,9.492 L6.992,9.228 Z" id="?" fill="#FFFFFF" fill-rule="nonzero"></path>
            </g>
        </g>
    </g>
</svg>