<?xml version="1.0" encoding="UTF-8"?>
<svg width="19px" height="19px" viewBox="0 0 19 19" version="1.1" xmlns="http://www.w3.org/2000/svg" xmlns:xlink="http://www.w3.org/1999/xlink">
    <!-- Generator: Sketch 55.2 (78181) - https://sketchapp.com -->
    <title>Shape</title>
    <desc>Created with Sketch.</desc>
    <g id="5-+-mobile" stroke="none" stroke-width="1" fill="none" fill-rule="evenodd">
        <g id="room-selection" transform="translate(-947.000000, -341.000000)" fill="#FFFFFF" fill-rule="nonzero" stroke="#FFFFFF" stroke-width="1.5">
            <path d="M956.691441,342.077917 C956.584906,341.974028 956.415282,341.974028 956.308559,342.077917 L948.082734,347.110306 C948.029656,347.162062 948,347.232329 948,347.306563 L948,358.725732 C948,358.797888 948.029278,358.868533 948.080279,358.919533 C948.131468,358.970722 948.202113,359 948.27427,359 L964.725919,359 C964.798076,359 964.868721,358.970722 964.919721,358.919722 C964.970722,358.868721 965,358.798077 965,358.725921 L965,347.306563 C965,347.232329 964.970344,347.162062 964.917266,347.110306 L956.691441,342.077917 Z M948.548539,347.422164 L956.500094,342.657243 L964.451649,347.422164 L964.451649,358.451653 L948.548539,358.451653 L948.548539,347.422164 Z" id="Shape"></path>
        </g>
    </g>
</svg>