<?xml version="1.0" encoding="UTF-8"?>
<svg width="24px" height="23px" viewBox="0 0 24 23" version="1.1" xmlns="http://www.w3.org/2000/svg" xmlns:xlink="http://www.w3.org/1999/xlink">
    <!-- Generator: Sketch 61 (89581) - https://sketch.com -->
    <title>noun_Boat_1658596</title>
    <desc>Created with Sketch.</desc>
    <g id="Page-1" stroke="none" stroke-width="1" fill="none" fill-rule="evenodd">
        <g id="Artboard-Copy" transform="translate(-92.000000, -417.000000)" fill="#FFFFFF" fill-rule="nonzero" stroke="#364B60" stroke-width="0.2">
            <g id="noun_Boat_1658596" transform="translate(93.000000, 418.000000)">
                <path d="M16.5,21 L0,21 L0,14.3684211 L7.7,14.3684211 L7.7,0 L8.8,0 C12.76,0 18.7,7.29473684 18.7,11.0526316 L18.7,12.1578947 L9.9,12.1578947 L9.9,14.3684211 L22,14.3684211 L22,15.4736842 C22,18.5684211 19.58,21 16.5,21 Z M2.2,18.7894737 L16.5,18.7894737 C17.93,18.7894737 19.14,17.9052632 19.58,16.5789474 L2.2,16.5789474 L2.2,18.7894737 Z M9.9,9.94736842 L16.28,9.94736842 C15.51,7.29473684 12.21,3.53684211 9.9,2.54210526 L9.9,9.94736842 Z" id="Shape"></path>
            </g>
        </g>
    </g>
</svg>