<?xml version="1.0" encoding="UTF-8"?>
<svg width="24px" height="28px" viewBox="0 0 24 28" version="1.1" xmlns="http://www.w3.org/2000/svg" xmlns:xlink="http://www.w3.org/1999/xlink">
    <!-- Generator: Sketch 61 (89581) - https://sketch.com -->
    <title>ski</title>
    <desc>Created with Sketch.</desc>
    <g id="Page-1" stroke="none" stroke-width="1" fill="none" fill-rule="evenodd">
        <g id="ski" transform="translate(0.000000, 1.000000)" fill="#FFFFFF" fill-rule="nonzero" stroke="#364B60" stroke-width="0.1">
            <path d="M20.5447608,0.398738391 C18.4162386,-0.591237702 15.8901553,0.325359809 14.8972963,2.4490223 C14.6775661,2.91900069 14.5524787,3.40918993 14.5133284,3.89816042 C14.0508054,3.80015304 13.5702091,3.83168806 13.11685,3.99632014 C12.6298899,4.17329202 10.6548123,5.82910892 7.71599662,8.15091897 L5.26291918,7.00997088 L5.62209362,6.24160319 C5.8204414,5.81727694 5.63634859,5.31286901 5.21099034,5.11497536 C4.78563209,4.91723404 4.27988596,5.10070589 4.08148727,5.52508292 L3.72231282,6.29339983 L2.95198419,5.9351397 C2.52662594,5.7373476 2.02087982,5.92087023 1.82248112,6.3451457 C1.62413333,6.76952273 1.80812432,7.27393066 2.2335844,7.47182431 L3.00391303,7.83008445 L2.64473859,8.59845214 C2.4463908,9.02277839 2.63048361,9.52718632 3.05584186,9.72507998 C3.48155649,9.92307519 3.98704806,9.7391971 4.18534494,9.31497241 L4.54451938,8.5466555 L6.2225335,9.32715986 C5.32497922,10.2353277 5.23028547,11.6758839 6.03981528,12.6803833 L9.78434248,17.3980422 L8.65550125,19.8127307 L1.20931358,16.3493632 C0.783904417,16.1515711 0.278260113,16.3350429 0.0798105064,16.7594708 C-0.118537279,17.183797 0.0655555321,17.6882049 0.490913784,17.8860986 C14.1748746,24.25084 10.3352463,22.4489769 17.2869391,25.7585286 C18.5681049,26.3545963 20.0881943,25.802505 20.6823213,24.5316591 C20.8806691,24.1073328 20.6966781,23.6029249 20.271218,23.4049804 C19.845707,23.2072899 19.3401136,23.3906602 19.141664,23.8150372 C18.9441308,24.2377385 18.4394029,24.4216674 18.0151647,24.2265159 L13.2738584,21.9692993 L15.0700361,18.1271053 C15.0711052,18.1249725 15.0721234,18.1227382 15.0731416,18.1205546 C15.4825139,17.2448358 15.3627212,16.2306879 14.7606013,15.4737968 L12.7350203,12.92789 L13.187514,12.5668369 C14.117651,12.9994913 14.2551097,13.0633738 17.6392406,14.6373825 C18.9153154,15.2308603 20.4349975,14.6752651 21.0276989,13.4071614 C21.6216223,12.1366201 21.0682238,10.6197909 19.7943382,10.0273794 L17.6793582,9.04364939 L17.3927314,8.25811771 C19.4183632,8.94259515 21.6758421,8.00929069 22.6002772,6.03182677 C23.5927798,3.90862131 22.6736394,1.38886683 20.5447608,0.398738391 Z M13.4291358,16.5276554 C13.6173524,16.7642442 13.6743722,17.0885318 13.5324843,17.4041867 L11.7365612,21.245822 L10.1960058,20.529251 L11.5465119,17.6403184 C11.6823923,17.3495971 11.6422238,17.0073329 11.4426033,16.7558653 C11.4402614,16.75292 7.36786978,11.6221067 7.36547698,11.6192122 C7.08114115,11.2677568 7.1398411,10.7397864 7.51764883,10.4407877 C7.55608635,10.4103699 7.70566176,10.2926595 7.93150128,10.122086 C9.61348643,10.9044185 9.92953958,11.0513788 11.4684659,11.7671881 L11.0121031,12.1312881 C10.6465139,12.4229743 10.5862357,12.9544993 10.8772408,13.320275 L13.4291358,16.5276554 Z M19.076142,11.564064 C19.497682,11.7601296 19.6845749,12.2686 19.4872453,12.6906411 L19.4872453,12.6906919 C19.2904249,13.1118697 18.7801477,13.2972712 18.3577422,13.1007486 L15.2766314,11.6677081 C15.0725307,11.5727476 14.9169987,11.4042561 14.8263269,11.1799564 L14.6415213,10.6734664 C14.4433263,10.1304141 13.7688115,9.93968059 13.314536,10.2993118 L12.9518996,10.5863769 C12.6787132,10.4593228 11.247361,9.7935328 9.43703022,8.9515834 C10.7412076,7.9120958 13.2653054,5.87882354 13.7463599,5.57388348 C13.945675,5.51452046 14.1589905,5.53066883 14.3523999,5.62070359 C14.5614389,5.71794925 14.719211,5.88837037 14.796646,6.10058428 L16.2025938,9.95359459 C16.2797234,10.1648437 16.4377499,10.3369406 16.6421052,10.4320026 L19.076142,11.564064 Z M21.0596199,5.31515416 L21.0596199,5.31520494 C20.4641183,6.58899618 18.9484073,7.13951328 17.6712125,6.54537528 C16.3969705,5.95276071 15.8437248,4.43654085 16.4378518,3.16554257 C17.0310623,1.89677864 18.5437697,1.33884752 19.8263101,1.93537222 C21.1036067,2.52951022 21.6552742,4.04110901 21.0596199,5.31515416 Z" id="Shape"></path>
        </g>
    </g>
</svg>